<mxfile host="app.diagrams.net" modified="2023-02-11T19:58:19.486Z" agent="5.0 (Windows NT 10.0; Win64; x64) AppleWebKit/537.36 (KHTML, like Gecko) Chrome/109.0.0.0 Safari/537.36 OPR/95.0.0.0" etag="kLABemYfV34p5nf2Ju0D" version="20.6.2" type="github">
  <diagram id="07fea595-8f29-1299-0266-81d95cde20df" name="Page-1">
    <mxGraphModel dx="2452" dy="956" grid="1" gridSize="10" guides="1" tooltips="1" connect="1" arrows="1" fold="1" page="1" pageScale="1" pageWidth="1169" pageHeight="827" background="none" math="0" shadow="0">
      <root>
        <mxCell id="0" />
        <mxCell id="1" parent="0" />
        <mxCell id="a8NFsu6y8IcwXWYg8Euw-835" value="Internet" style="rounded=0;whiteSpace=wrap;html=1;align=left;verticalAlign=top;" vertex="1" parent="1">
          <mxGeometry x="100" y="520" width="1100" height="380" as="geometry" />
        </mxCell>
        <mxCell id="a8NFsu6y8IcwXWYg8Euw-819" value="Internet" style="rounded=0;whiteSpace=wrap;html=1;align=left;verticalAlign=top;" vertex="1" parent="1">
          <mxGeometry x="100" y="90" width="1100" height="410" as="geometry" />
        </mxCell>
        <mxCell id="a8NFsu6y8IcwXWYg8Euw-722" value="Внутренний контур&amp;nbsp;" style="rounded=0;whiteSpace=wrap;html=1;align=left;verticalAlign=top;" vertex="1" parent="1">
          <mxGeometry x="120" y="160" width="660" height="340" as="geometry" />
        </mxCell>
        <mxCell id="a8NFsu6y8IcwXWYg8Euw-745" style="edgeStyle=orthogonalEdgeStyle;curved=1;rounded=0;orthogonalLoop=1;jettySize=auto;html=1;" edge="1" parent="1" source="a8NFsu6y8IcwXWYg8Euw-728" target="a8NFsu6y8IcwXWYg8Euw-733">
          <mxGeometry relative="1" as="geometry" />
        </mxCell>
        <mxCell id="a8NFsu6y8IcwXWYg8Euw-728" value="Облачные провайдеры. &lt;br&gt;Операторы сотовой связи.&lt;br&gt;Месенджеры" style="sketch=0;aspect=fixed;pointerEvents=1;shadow=0;dashed=0;html=1;strokeColor=none;labelPosition=center;verticalLabelPosition=bottom;verticalAlign=top;align=center;fillColor=#00188D;shape=mxgraph.mscae.enterprise.internet" vertex="1" parent="1">
          <mxGeometry x="789.05" y="280" width="112.9" height="70" as="geometry" />
        </mxCell>
        <mxCell id="a8NFsu6y8IcwXWYg8Euw-770" style="edgeStyle=orthogonalEdgeStyle;curved=1;rounded=0;orthogonalLoop=1;jettySize=auto;html=1;entryX=1;entryY=0.25;entryDx=0;entryDy=0;exitX=0.573;exitY=0;exitDx=0;exitDy=0;exitPerimeter=0;" edge="1" parent="1" source="a8NFsu6y8IcwXWYg8Euw-733" target="a8NFsu6y8IcwXWYg8Euw-735">
          <mxGeometry relative="1" as="geometry">
            <Array as="points">
              <mxPoint x="851" y="110" />
              <mxPoint x="727" y="110" />
              <mxPoint x="727" y="245" />
            </Array>
          </mxGeometry>
        </mxCell>
        <mxCell id="a8NFsu6y8IcwXWYg8Euw-733" value="Клиентское &lt;br&gt;устройство" style="sketch=0;aspect=fixed;html=1;points=[];align=center;image;fontSize=12;image=img/lib/mscae/Mobile_Engagement.svg;" vertex="1" parent="1">
          <mxGeometry x="808.1" y="120" width="74.8" height="110" as="geometry" />
        </mxCell>
        <mxCell id="a8NFsu6y8IcwXWYg8Euw-735" value="ОС Нотификация" style="rounded=1;whiteSpace=wrap;html=1;fillColor=#d5e8d4;strokeColor=#82b366;" vertex="1" parent="1">
          <mxGeometry x="500" y="230" width="145" height="60" as="geometry" />
        </mxCell>
        <mxCell id="a8NFsu6y8IcwXWYg8Euw-736" value="СБО Управление услугой нотификации РБ/ЮЛ" style="rounded=1;whiteSpace=wrap;html=1;fillColor=#dae8fc;strokeColor=#6c8ebf;" vertex="1" parent="1">
          <mxGeometry x="435" y="410" width="150" height="60" as="geometry" />
        </mxCell>
        <mxCell id="a8NFsu6y8IcwXWYg8Euw-738" value="" style="endArrow=classic;html=1;rounded=0;entryX=0.25;entryY=1;entryDx=0;entryDy=0;exitX=0.5;exitY=0;exitDx=0;exitDy=0;edgeStyle=orthogonalEdgeStyle;curved=1;fillColor=#f8cecc;strokeColor=#000000;" edge="1" parent="1" source="a8NFsu6y8IcwXWYg8Euw-736" target="a8NFsu6y8IcwXWYg8Euw-735">
          <mxGeometry width="50" height="50" relative="1" as="geometry">
            <mxPoint x="540" y="590" as="sourcePoint" />
            <mxPoint x="590" y="540" as="targetPoint" />
          </mxGeometry>
        </mxCell>
        <mxCell id="a8NFsu6y8IcwXWYg8Euw-759" style="edgeStyle=orthogonalEdgeStyle;curved=1;rounded=0;orthogonalLoop=1;jettySize=auto;html=1;entryX=0;entryY=0.5;entryDx=0;entryDy=0;" edge="1" parent="1" source="a8NFsu6y8IcwXWYg8Euw-758" target="a8NFsu6y8IcwXWYg8Euw-735">
          <mxGeometry relative="1" as="geometry" />
        </mxCell>
        <mxCell id="a8NFsu6y8IcwXWYg8Euw-758" value="Потребители" style="rounded=1;whiteSpace=wrap;html=1;fillColor=#dae8fc;strokeColor=#6c8ebf;" vertex="1" parent="1">
          <mxGeometry x="245" y="180" width="125" height="60" as="geometry" />
        </mxCell>
        <mxCell id="a8NFsu6y8IcwXWYg8Euw-764" style="edgeStyle=orthogonalEdgeStyle;curved=1;rounded=0;orthogonalLoop=1;jettySize=auto;html=1;entryX=0;entryY=0.5;entryDx=0;entryDy=0;fillColor=#f8cecc;strokeColor=#000000;" edge="1" parent="1" source="a8NFsu6y8IcwXWYg8Euw-763" target="a8NFsu6y8IcwXWYg8Euw-772">
          <mxGeometry relative="1" as="geometry">
            <mxPoint x="202.5" y="260" as="targetPoint" />
          </mxGeometry>
        </mxCell>
        <mxCell id="a8NFsu6y8IcwXWYg8Euw-763" value="АБС" style="rounded=1;whiteSpace=wrap;html=1;fillColor=#dae8fc;strokeColor=#6c8ebf;" vertex="1" parent="1">
          <mxGeometry x="140" y="295" width="80" height="50" as="geometry" />
        </mxCell>
        <mxCell id="a8NFsu6y8IcwXWYg8Euw-765" style="edgeStyle=orthogonalEdgeStyle;curved=1;rounded=0;orthogonalLoop=1;jettySize=auto;html=1;entryX=1;entryY=0.5;entryDx=0;entryDy=0;startArrow=classic;startFill=1;endArrow=none;endFill=0;" edge="1" parent="1" source="a8NFsu6y8IcwXWYg8Euw-728" target="a8NFsu6y8IcwXWYg8Euw-735">
          <mxGeometry relative="1" as="geometry" />
        </mxCell>
        <mxCell id="a8NFsu6y8IcwXWYg8Euw-776" style="edgeStyle=orthogonalEdgeStyle;curved=1;rounded=0;orthogonalLoop=1;jettySize=auto;html=1;startArrow=none;startFill=0;" edge="1" parent="1" source="a8NFsu6y8IcwXWYg8Euw-767" target="a8NFsu6y8IcwXWYg8Euw-735">
          <mxGeometry relative="1" as="geometry" />
        </mxCell>
        <mxCell id="a8NFsu6y8IcwXWYg8Euw-767" value="БДПН" style="rounded=1;whiteSpace=wrap;html=1;fillColor=#f5f5f5;fontColor=#333333;strokeColor=#666666;" vertex="1" parent="1">
          <mxGeometry x="512.5" y="95" width="120" height="50" as="geometry" />
        </mxCell>
        <mxCell id="a8NFsu6y8IcwXWYg8Euw-774" style="edgeStyle=orthogonalEdgeStyle;curved=1;rounded=0;orthogonalLoop=1;jettySize=auto;html=1;entryX=0;entryY=0.5;entryDx=0;entryDy=0;fillColor=#f8cecc;strokeColor=#000000;" edge="1" parent="1" source="a8NFsu6y8IcwXWYg8Euw-772" target="a8NFsu6y8IcwXWYg8Euw-735">
          <mxGeometry relative="1" as="geometry" />
        </mxCell>
        <mxCell id="a8NFsu6y8IcwXWYg8Euw-772" value="Стриминг бизнес-событий" style="rounded=1;whiteSpace=wrap;html=1;fillColor=#dae8fc;strokeColor=#6c8ebf;" vertex="1" parent="1">
          <mxGeometry x="260" y="290" width="110" height="60" as="geometry" />
        </mxCell>
        <mxCell id="a8NFsu6y8IcwXWYg8Euw-777" value="Внутренний контур&amp;nbsp;" style="rounded=0;whiteSpace=wrap;html=1;align=left;verticalAlign=top;" vertex="1" parent="1">
          <mxGeometry x="120" y="560" width="640" height="340" as="geometry" />
        </mxCell>
        <mxCell id="a8NFsu6y8IcwXWYg8Euw-779" value="Облачные провайдеры.&lt;br&gt;Месенджеры" style="sketch=0;aspect=fixed;pointerEvents=1;shadow=0;dashed=0;html=1;strokeColor=none;labelPosition=center;verticalLabelPosition=bottom;verticalAlign=top;align=center;fillColor=#00188D;shape=mxgraph.mscae.enterprise.internet" vertex="1" parent="1">
          <mxGeometry x="770" y="560" width="112.9" height="70" as="geometry" />
        </mxCell>
        <mxCell id="a8NFsu6y8IcwXWYg8Euw-782" value="Канальное приложение" style="sketch=0;aspect=fixed;html=1;points=[];align=center;image;fontSize=12;image=img/lib/mscae/Mobile_Engagement.svg;" vertex="1" parent="1">
          <mxGeometry x="780.21" y="720" width="92.48" height="136" as="geometry" />
        </mxCell>
        <mxCell id="a8NFsu6y8IcwXWYg8Euw-783" value="ОС Нотификация" style="rounded=1;whiteSpace=wrap;html=1;fillColor=#dae8fc;strokeColor=#6c8ebf;" vertex="1" parent="1">
          <mxGeometry x="510" y="587" width="145" height="60" as="geometry" />
        </mxCell>
        <mxCell id="a8NFsu6y8IcwXWYg8Euw-784" style="edgeStyle=orthogonalEdgeStyle;curved=1;rounded=0;orthogonalLoop=1;jettySize=auto;html=1;entryX=-0.011;entryY=0.779;entryDx=0;entryDy=0;entryPerimeter=0;exitX=1;exitY=0.75;exitDx=0;exitDy=0;" edge="1" parent="1" source="a8NFsu6y8IcwXWYg8Euw-785" target="a8NFsu6y8IcwXWYg8Euw-782">
          <mxGeometry relative="1" as="geometry" />
        </mxCell>
        <mxCell id="a8NFsu6y8IcwXWYg8Euw-785" value="СБО Управление услугой нотификации РБ/ЮЛ" style="rounded=1;whiteSpace=wrap;html=1;fillColor=#d5e8d4;strokeColor=#82b366;" vertex="1" parent="1">
          <mxGeometry x="507.5" y="700" width="150" height="60" as="geometry" />
        </mxCell>
        <mxCell id="a8NFsu6y8IcwXWYg8Euw-786" value="" style="endArrow=classic;html=1;rounded=0;entryX=0.5;entryY=1;entryDx=0;entryDy=0;exitX=0.5;exitY=0;exitDx=0;exitDy=0;edgeStyle=orthogonalEdgeStyle;curved=1;fillColor=#f8cecc;strokeColor=#b85450;" edge="1" parent="1" source="a8NFsu6y8IcwXWYg8Euw-785" target="a8NFsu6y8IcwXWYg8Euw-783">
          <mxGeometry width="50" height="50" relative="1" as="geometry">
            <mxPoint x="550" y="1010" as="sourcePoint" />
            <mxPoint x="600" y="960" as="targetPoint" />
          </mxGeometry>
        </mxCell>
        <mxCell id="a8NFsu6y8IcwXWYg8Euw-790" style="edgeStyle=orthogonalEdgeStyle;curved=1;rounded=0;orthogonalLoop=1;jettySize=auto;html=1;fillColor=#f8cecc;strokeColor=#b85450;entryX=1;entryY=0.5;entryDx=0;entryDy=0;" edge="1" parent="1" source="a8NFsu6y8IcwXWYg8Euw-785" target="a8NFsu6y8IcwXWYg8Euw-831">
          <mxGeometry relative="1" as="geometry">
            <mxPoint x="360" y="810" as="targetPoint" />
          </mxGeometry>
        </mxCell>
        <mxCell id="a8NFsu6y8IcwXWYg8Euw-791" value="АБС" style="rounded=1;whiteSpace=wrap;html=1;fillColor=#dae8fc;strokeColor=#6c8ebf;" vertex="1" parent="1">
          <mxGeometry x="140" y="685" width="80" height="50" as="geometry" />
        </mxCell>
        <mxCell id="a8NFsu6y8IcwXWYg8Euw-792" style="edgeStyle=orthogonalEdgeStyle;curved=1;rounded=0;orthogonalLoop=1;jettySize=auto;html=1;entryX=1;entryY=0.25;entryDx=0;entryDy=0;" edge="1" parent="1" source="a8NFsu6y8IcwXWYg8Euw-779" target="a8NFsu6y8IcwXWYg8Euw-785">
          <mxGeometry relative="1" as="geometry" />
        </mxCell>
        <mxCell id="a8NFsu6y8IcwXWYg8Euw-798" value="Внутренний контур&amp;nbsp;" style="rounded=0;whiteSpace=wrap;html=1;align=left;verticalAlign=top;" vertex="1" parent="1">
          <mxGeometry x="110" y="1310" width="710" height="420" as="geometry" />
        </mxCell>
        <mxCell id="a8NFsu6y8IcwXWYg8Euw-799" style="edgeStyle=orthogonalEdgeStyle;curved=1;rounded=0;orthogonalLoop=1;jettySize=auto;html=1;" edge="1" parent="1" source="a8NFsu6y8IcwXWYg8Euw-800" target="a8NFsu6y8IcwXWYg8Euw-803">
          <mxGeometry relative="1" as="geometry" />
        </mxCell>
        <mxCell id="a8NFsu6y8IcwXWYg8Euw-800" value="FireBase, APN, RuStore, Huawei" style="sketch=0;aspect=fixed;pointerEvents=1;shadow=0;dashed=0;html=1;strokeColor=none;labelPosition=center;verticalLabelPosition=bottom;verticalAlign=top;align=center;fillColor=#00188D;shape=mxgraph.mscae.enterprise.internet" vertex="1" parent="1">
          <mxGeometry x="840" y="1470" width="112.9" height="70" as="geometry" />
        </mxCell>
        <mxCell id="a8NFsu6y8IcwXWYg8Euw-801" style="edgeStyle=orthogonalEdgeStyle;curved=1;rounded=0;orthogonalLoop=1;jettySize=auto;html=1;entryX=1;entryY=0.5;entryDx=0;entryDy=0;exitX=-0.043;exitY=0.919;exitDx=0;exitDy=0;exitPerimeter=0;startArrow=classic;startFill=1;" edge="1" parent="1" source="a8NFsu6y8IcwXWYg8Euw-803" target="a8NFsu6y8IcwXWYg8Euw-808">
          <mxGeometry relative="1" as="geometry" />
        </mxCell>
        <mxCell id="a8NFsu6y8IcwXWYg8Euw-802" style="edgeStyle=orthogonalEdgeStyle;curved=1;rounded=0;orthogonalLoop=1;jettySize=auto;html=1;entryX=1;entryY=0.25;entryDx=0;entryDy=0;exitX=0.573;exitY=0;exitDx=0;exitDy=0;exitPerimeter=0;" edge="1" parent="1" source="a8NFsu6y8IcwXWYg8Euw-803" target="a8NFsu6y8IcwXWYg8Euw-804">
          <mxGeometry relative="1" as="geometry" />
        </mxCell>
        <mxCell id="a8NFsu6y8IcwXWYg8Euw-803" value="Клиентское устройство" style="sketch=0;aspect=fixed;html=1;points=[];align=center;image;fontSize=12;image=img/lib/mscae/Mobile_Engagement.svg;" vertex="1" parent="1">
          <mxGeometry x="1020" y="1530" width="92.48" height="136" as="geometry" />
        </mxCell>
        <mxCell id="a8NFsu6y8IcwXWYg8Euw-804" value="ОС Нотификация" style="rounded=1;whiteSpace=wrap;html=1;" vertex="1" parent="1">
          <mxGeometry x="480" y="1400" width="145" height="60" as="geometry" />
        </mxCell>
        <mxCell id="a8NFsu6y8IcwXWYg8Euw-805" style="edgeStyle=orthogonalEdgeStyle;curved=1;rounded=0;orthogonalLoop=1;jettySize=auto;html=1;entryX=-0.011;entryY=0.779;entryDx=0;entryDy=0;entryPerimeter=0;exitX=1;exitY=0.75;exitDx=0;exitDy=0;" edge="1" parent="1" source="a8NFsu6y8IcwXWYg8Euw-806" target="a8NFsu6y8IcwXWYg8Euw-803">
          <mxGeometry relative="1" as="geometry" />
        </mxCell>
        <mxCell id="a8NFsu6y8IcwXWYg8Euw-806" value="СБО Управление услугой нотификации РБ/ЮЛ" style="rounded=1;whiteSpace=wrap;html=1;" vertex="1" parent="1">
          <mxGeometry x="477.5" y="1500" width="150" height="60" as="geometry" />
        </mxCell>
        <mxCell id="a8NFsu6y8IcwXWYg8Euw-807" value="" style="endArrow=classic;html=1;rounded=0;entryX=0.5;entryY=1;entryDx=0;entryDy=0;exitX=0.5;exitY=0;exitDx=0;exitDy=0;edgeStyle=orthogonalEdgeStyle;curved=1;fillColor=#f8cecc;strokeColor=#b85450;" edge="1" parent="1" source="a8NFsu6y8IcwXWYg8Euw-806" target="a8NFsu6y8IcwXWYg8Euw-804">
          <mxGeometry width="50" height="50" relative="1" as="geometry">
            <mxPoint x="520" y="1760" as="sourcePoint" />
            <mxPoint x="570" y="1710" as="targetPoint" />
          </mxGeometry>
        </mxCell>
        <mxCell id="a8NFsu6y8IcwXWYg8Euw-808" value="СБО История операций" style="rounded=1;whiteSpace=wrap;html=1;" vertex="1" parent="1">
          <mxGeometry x="480" y="1590" width="150" height="60" as="geometry" />
        </mxCell>
        <mxCell id="a8NFsu6y8IcwXWYg8Euw-809" style="edgeStyle=orthogonalEdgeStyle;curved=1;rounded=0;orthogonalLoop=1;jettySize=auto;html=1;entryX=0;entryY=0.25;entryDx=0;entryDy=0;" edge="1" parent="1" source="a8NFsu6y8IcwXWYg8Euw-810" target="a8NFsu6y8IcwXWYg8Euw-804">
          <mxGeometry relative="1" as="geometry" />
        </mxCell>
        <mxCell id="a8NFsu6y8IcwXWYg8Euw-810" value="Потребители" style="rounded=1;whiteSpace=wrap;html=1;" vertex="1" parent="1">
          <mxGeometry x="280" y="1350" width="125" height="60" as="geometry" />
        </mxCell>
        <mxCell id="a8NFsu6y8IcwXWYg8Euw-811" style="edgeStyle=orthogonalEdgeStyle;curved=1;rounded=0;orthogonalLoop=1;jettySize=auto;html=1;entryX=0;entryY=0.5;entryDx=0;entryDy=0;fillColor=#f8cecc;strokeColor=#b85450;" edge="1" parent="1" source="a8NFsu6y8IcwXWYg8Euw-812" target="a8NFsu6y8IcwXWYg8Euw-818">
          <mxGeometry relative="1" as="geometry">
            <mxPoint x="182.5" y="1430" as="targetPoint" />
          </mxGeometry>
        </mxCell>
        <mxCell id="a8NFsu6y8IcwXWYg8Euw-812" value="АБС" style="rounded=1;whiteSpace=wrap;html=1;" vertex="1" parent="1">
          <mxGeometry x="120" y="1460" width="80" height="50" as="geometry" />
        </mxCell>
        <mxCell id="a8NFsu6y8IcwXWYg8Euw-813" style="edgeStyle=orthogonalEdgeStyle;curved=1;rounded=0;orthogonalLoop=1;jettySize=auto;html=1;entryX=1;entryY=0.25;entryDx=0;entryDy=0;" edge="1" parent="1" source="a8NFsu6y8IcwXWYg8Euw-800" target="a8NFsu6y8IcwXWYg8Euw-806">
          <mxGeometry relative="1" as="geometry" />
        </mxCell>
        <mxCell id="a8NFsu6y8IcwXWYg8Euw-814" style="edgeStyle=orthogonalEdgeStyle;curved=1;rounded=0;orthogonalLoop=1;jettySize=auto;html=1;startArrow=none;startFill=0;" edge="1" parent="1" source="a8NFsu6y8IcwXWYg8Euw-815" target="a8NFsu6y8IcwXWYg8Euw-804">
          <mxGeometry relative="1" as="geometry" />
        </mxCell>
        <mxCell id="a8NFsu6y8IcwXWYg8Euw-815" value="БДПН" style="rounded=1;whiteSpace=wrap;html=1;" vertex="1" parent="1">
          <mxGeometry x="492.5" y="1230" width="120" height="60" as="geometry" />
        </mxCell>
        <mxCell id="a8NFsu6y8IcwXWYg8Euw-816" style="edgeStyle=orthogonalEdgeStyle;curved=1;rounded=0;orthogonalLoop=1;jettySize=auto;html=1;fillColor=#f8cecc;strokeColor=#b85450;entryX=0;entryY=0.5;entryDx=0;entryDy=0;" edge="1" parent="1" source="a8NFsu6y8IcwXWYg8Euw-818" target="a8NFsu6y8IcwXWYg8Euw-808">
          <mxGeometry relative="1" as="geometry" />
        </mxCell>
        <mxCell id="a8NFsu6y8IcwXWYg8Euw-817" style="edgeStyle=orthogonalEdgeStyle;curved=1;rounded=0;orthogonalLoop=1;jettySize=auto;html=1;entryX=0;entryY=0.75;entryDx=0;entryDy=0;fillColor=#f8cecc;strokeColor=#b85450;" edge="1" parent="1" source="a8NFsu6y8IcwXWYg8Euw-818" target="a8NFsu6y8IcwXWYg8Euw-804">
          <mxGeometry relative="1" as="geometry" />
        </mxCell>
        <mxCell id="a8NFsu6y8IcwXWYg8Euw-818" value="Стриминг бизнес-событий" style="rounded=1;whiteSpace=wrap;html=1;" vertex="1" parent="1">
          <mxGeometry x="240" y="1460" width="110" height="60" as="geometry" />
        </mxCell>
        <mxCell id="a8NFsu6y8IcwXWYg8Euw-821" style="edgeStyle=orthogonalEdgeStyle;curved=1;rounded=0;orthogonalLoop=1;jettySize=auto;html=1;entryX=0.75;entryY=1;entryDx=0;entryDy=0;startArrow=none;startFill=0;fillColor=#f8cecc;strokeColor=#000000;" edge="1" parent="1" source="a8NFsu6y8IcwXWYg8Euw-820" target="a8NFsu6y8IcwXWYg8Euw-735">
          <mxGeometry relative="1" as="geometry" />
        </mxCell>
        <mxCell id="a8NFsu6y8IcwXWYg8Euw-820" value="СБО Управление данными клиента" style="rounded=1;whiteSpace=wrap;html=1;fillColor=#dae8fc;strokeColor=#6c8ebf;" vertex="1" parent="1">
          <mxGeometry x="600" y="410" width="150" height="60" as="geometry" />
        </mxCell>
        <mxCell id="a8NFsu6y8IcwXWYg8Euw-822" value="#1" style="text;html=1;strokeColor=#6c8ebf;fillColor=#dae8fc;align=center;verticalAlign=middle;whiteSpace=wrap;rounded=1;glass=0;" vertex="1" parent="1">
          <mxGeometry x="420" y="250" width="25" height="20" as="geometry" />
        </mxCell>
        <mxCell id="a8NFsu6y8IcwXWYg8Euw-823" value="#2" style="text;html=1;strokeColor=#6c8ebf;fillColor=#dae8fc;align=center;verticalAlign=middle;whiteSpace=wrap;rounded=1;glass=0;" vertex="1" parent="1">
          <mxGeometry x="500" y="325" width="25" height="20" as="geometry" />
        </mxCell>
        <mxCell id="a8NFsu6y8IcwXWYg8Euw-824" value="#3" style="text;html=1;strokeColor=#6c8ebf;fillColor=#dae8fc;align=center;verticalAlign=middle;whiteSpace=wrap;rounded=1;glass=0;" vertex="1" parent="1">
          <mxGeometry x="620" y="355" width="25" height="20" as="geometry" />
        </mxCell>
        <mxCell id="a8NFsu6y8IcwXWYg8Euw-826" value="#4" style="text;html=1;strokeColor=#6c8ebf;fillColor=#dae8fc;align=center;verticalAlign=middle;whiteSpace=wrap;rounded=1;glass=0;" vertex="1" parent="1">
          <mxGeometry x="572" y="180" width="25" height="20" as="geometry" />
        </mxCell>
        <mxCell id="a8NFsu6y8IcwXWYg8Euw-827" value="#5" style="text;html=1;strokeColor=#6c8ebf;fillColor=#dae8fc;align=center;verticalAlign=middle;whiteSpace=wrap;rounded=1;glass=0;arcSize=0;" vertex="1" parent="1">
          <mxGeometry x="700" y="200" width="25" height="20" as="geometry" />
        </mxCell>
        <mxCell id="a8NFsu6y8IcwXWYg8Euw-828" value="#6" style="text;html=1;strokeColor=#6c8ebf;fillColor=#dae8fc;align=center;verticalAlign=middle;whiteSpace=wrap;rounded=1;glass=0;arcSize=0;" vertex="1" parent="1">
          <mxGeometry x="700" y="270" width="25" height="20" as="geometry" />
        </mxCell>
        <mxCell id="a8NFsu6y8IcwXWYg8Euw-829" value="&lt;font style=&quot;font-size: 18px;&quot;&gt;&lt;b&gt;#1&lt;/b&gt; Синхронный/асинхронный запрос на доставку уведомления&lt;br&gt;&lt;b&gt;#2, 3&lt;/b&gt; Обогащение информацией о клиента&lt;br&gt;&lt;b&gt;#4&lt;/b&gt; Обновление информации о провайдере мобильной связи&lt;br&gt;&lt;b&gt;#5&lt;/b&gt; получение истории&lt;br&gt;&lt;b&gt;#6 &lt;/b&gt;отправка уведомления во внешние провайдеры&lt;/font&gt;" style="text;html=1;strokeColor=none;fillColor=none;align=left;verticalAlign=middle;whiteSpace=wrap;rounded=0;glass=0;" vertex="1" parent="1">
          <mxGeometry x="900" y="95" width="287.1" height="230" as="geometry" />
        </mxCell>
        <mxCell id="a8NFsu6y8IcwXWYg8Euw-837" style="edgeStyle=orthogonalEdgeStyle;curved=1;rounded=0;orthogonalLoop=1;jettySize=auto;html=1;entryX=0.75;entryY=1;entryDx=0;entryDy=0;strokeColor=#000000;fontSize=18;startArrow=none;startFill=0;endArrow=classic;endFill=1;" edge="1" parent="1" source="a8NFsu6y8IcwXWYg8Euw-830" target="a8NFsu6y8IcwXWYg8Euw-785">
          <mxGeometry relative="1" as="geometry" />
        </mxCell>
        <mxCell id="a8NFsu6y8IcwXWYg8Euw-830" value="СБО Управление данными клиента" style="rounded=1;whiteSpace=wrap;html=1;fillColor=#dae8fc;strokeColor=#6c8ebf;" vertex="1" parent="1">
          <mxGeometry x="610" y="830" width="120" height="60" as="geometry" />
        </mxCell>
        <mxCell id="a8NFsu6y8IcwXWYg8Euw-834" style="edgeStyle=orthogonalEdgeStyle;curved=1;rounded=0;orthogonalLoop=1;jettySize=auto;html=1;entryX=1;entryY=0.5;entryDx=0;entryDy=0;strokeColor=#000000;fontSize=18;startArrow=none;startFill=0;endArrow=classic;endFill=1;" edge="1" parent="1" source="a8NFsu6y8IcwXWYg8Euw-831" target="a8NFsu6y8IcwXWYg8Euw-791">
          <mxGeometry relative="1" as="geometry" />
        </mxCell>
        <mxCell id="a8NFsu6y8IcwXWYg8Euw-831" value="Интеграционный адаптер (pci dss)" style="rounded=1;whiteSpace=wrap;html=1;fillColor=#dae8fc;strokeColor=#6c8ebf;" vertex="1" parent="1">
          <mxGeometry x="270" y="680" width="107.5" height="60" as="geometry" />
        </mxCell>
        <mxCell id="a8NFsu6y8IcwXWYg8Euw-838" style="edgeStyle=orthogonalEdgeStyle;curved=1;rounded=0;orthogonalLoop=1;jettySize=auto;html=1;entryX=0.5;entryY=1;entryDx=0;entryDy=0;strokeColor=#000000;fontSize=18;startArrow=none;startFill=0;endArrow=classic;endFill=1;" edge="1" parent="1" source="a8NFsu6y8IcwXWYg8Euw-836" target="a8NFsu6y8IcwXWYg8Euw-785">
          <mxGeometry relative="1" as="geometry" />
        </mxCell>
        <mxCell id="a8NFsu6y8IcwXWYg8Euw-836" value="СБО Обслуживание клиента" style="rounded=1;whiteSpace=wrap;html=1;fillColor=#dae8fc;strokeColor=#6c8ebf;" vertex="1" parent="1">
          <mxGeometry x="475" y="830" width="125" height="60" as="geometry" />
        </mxCell>
        <mxCell id="a8NFsu6y8IcwXWYg8Euw-841" style="edgeStyle=orthogonalEdgeStyle;curved=1;rounded=0;orthogonalLoop=1;jettySize=auto;html=1;entryX=0.25;entryY=1;entryDx=0;entryDy=0;strokeColor=#000000;fontSize=18;startArrow=none;startFill=0;endArrow=classic;endFill=1;exitX=0.5;exitY=0;exitDx=0;exitDy=0;" edge="1" parent="1" source="a8NFsu6y8IcwXWYg8Euw-839" target="a8NFsu6y8IcwXWYg8Euw-785">
          <mxGeometry relative="1" as="geometry" />
        </mxCell>
        <mxCell id="a8NFsu6y8IcwXWYg8Euw-839" value="Проверка операций на признаки мошенничества" style="rounded=1;whiteSpace=wrap;html=1;fillColor=#dae8fc;strokeColor=#6c8ebf;" vertex="1" parent="1">
          <mxGeometry x="340" y="830" width="125" height="60" as="geometry" />
        </mxCell>
        <mxCell id="a8NFsu6y8IcwXWYg8Euw-842" value="#1" style="text;html=1;strokeColor=#6c8ebf;fillColor=#dae8fc;align=center;verticalAlign=middle;whiteSpace=wrap;rounded=1;glass=0;" vertex="1" parent="1">
          <mxGeometry x="465" y="700" width="25" height="20" as="geometry" />
        </mxCell>
        <mxCell id="a8NFsu6y8IcwXWYg8Euw-844" value="#2" style="text;html=1;strokeColor=#6c8ebf;fillColor=#dae8fc;align=center;verticalAlign=middle;whiteSpace=wrap;rounded=1;glass=0;" vertex="1" parent="1">
          <mxGeometry x="450" y="800" width="25" height="20" as="geometry" />
        </mxCell>
        <mxCell id="a8NFsu6y8IcwXWYg8Euw-845" value="#3" style="text;html=1;strokeColor=#6c8ebf;fillColor=#dae8fc;align=center;verticalAlign=middle;whiteSpace=wrap;rounded=1;glass=0;" vertex="1" parent="1">
          <mxGeometry x="555" y="800" width="25" height="20" as="geometry" />
        </mxCell>
        <mxCell id="a8NFsu6y8IcwXWYg8Euw-846" value="#4" style="text;html=1;strokeColor=#6c8ebf;fillColor=#dae8fc;align=center;verticalAlign=middle;whiteSpace=wrap;rounded=1;glass=0;arcSize=0;" vertex="1" parent="1">
          <mxGeometry x="630" y="800" width="25" height="20" as="geometry" />
        </mxCell>
        <mxCell id="a8NFsu6y8IcwXWYg8Euw-847" value="#5" style="text;html=1;strokeColor=#6c8ebf;fillColor=#dae8fc;align=center;verticalAlign=middle;whiteSpace=wrap;rounded=1;glass=0;" vertex="1" parent="1">
          <mxGeometry x="692.5" y="735" width="25" height="20" as="geometry" />
        </mxCell>
        <mxCell id="a8NFsu6y8IcwXWYg8Euw-848" value="#6" style="text;html=1;strokeColor=#6c8ebf;fillColor=#dae8fc;align=center;verticalAlign=middle;whiteSpace=wrap;rounded=1;glass=0;" vertex="1" parent="1">
          <mxGeometry x="667.5" y="685" width="25" height="20" as="geometry" />
        </mxCell>
        <mxCell id="a8NFsu6y8IcwXWYg8Euw-849" value="#7" style="text;html=1;strokeColor=#6c8ebf;fillColor=#dae8fc;align=center;verticalAlign=middle;whiteSpace=wrap;rounded=1;glass=0;" vertex="1" parent="1">
          <mxGeometry x="585" y="665" width="25" height="20" as="geometry" />
        </mxCell>
        <mxCell id="a8NFsu6y8IcwXWYg8Euw-850" value="&lt;font style=&quot;font-size: 18px;&quot;&gt;&lt;b&gt;#1&lt;/b&gt; Списание комиссии за услугу&lt;br&gt;&lt;b&gt;#2 &lt;/b&gt;Пров списание на признаки мошенничества&lt;br&gt;&lt;b&gt;#3, 4&lt;/b&gt;&amp;nbsp;Создание, обновление информации о клиенте&lt;br&gt;&lt;b&gt;#5&lt;/b&gt; Управление услугой в КП&lt;br&gt;&lt;b&gt;#6 &lt;/b&gt;Обновление токенов устройств&lt;br&gt;&lt;b&gt;#7&lt;/b&gt; Публикация информации о услуге клиента&lt;br&gt;&lt;/font&gt;" style="text;html=1;strokeColor=none;fillColor=none;align=left;verticalAlign=middle;whiteSpace=wrap;rounded=0;glass=0;" vertex="1" parent="1">
          <mxGeometry x="900" y="540" width="287.1" height="200" as="geometry" />
        </mxCell>
      </root>
    </mxGraphModel>
  </diagram>
</mxfile>
